ISO-10303-21;
HEADER;
/* Generated by software containing ST-Developer
 * from STEP Tools, Inc. (www.steptools.com) 
 */

FILE_DESCRIPTION(
/* description */ (''),
/* implementation_level */ '2;1');

FILE_NAME(
/* name */ 'Bottom.step',
/* time_stamp */ '2026-10-03T23:47:42+02:00',
/* author */ (''),
/* organization */ (''),
/* preprocessor_version */ 'ST-DEVELOPER v20.2',
/* originating_system */ 'Autodesk Translation Framework v15.15.0.0',
/* authorisation */ '');

FILE_SCHEMA (('AUTOMOTIVE_DESIGN { 1 0 10303 214 3 1 1 }'));
ENDSEC;

DATA;
#10=MECHANICAL_DESIGN_GEOMETRIC_PRESENTATION_REPRESENTATION('',(#13),#671);
#11=SHAPE_REPRESENTATION_RELATIONSHIP('SRR','None',#678,#12);
#12=ADVANCED_BREP_SHAPE_REPRESENTATION('',(#14),#670);
#13=STYLED_ITEM('',(#687),#14);
#14=MANIFOLD_SOLID_BREP('Bottom',#356);
#15=FACE_BOUND('',#127,.T.);
#16=FACE_BOUND('',#128,.T.);
#17=FACE_BOUND('',#129,.T.);
#18=FACE_BOUND('',#130,.T.);
#19=FACE_BOUND('',#131,.T.);
#20=FACE_BOUND('',#132,.T.);
#21=ELLIPSE('',#415,2.82842712474619,2.);
#22=ELLIPSE('',#416,2.82842712474619,2.);
#23=ELLIPSE('',#418,2.82842712474619,2.);
#24=ELLIPSE('',#420,2.82842712474619,2.);
#25=B_SPLINE_CURVE_WITH_KNOTS('',3,(#603,#604,#605,#606,#607,#608,#609,
#610,#611,#612,#613,#614,#615,#616,#617,#618,#619,#620),.UNSPECIFIED.,.F.,
 .F.,(4,2,2,2,2,2,2,2,4),(0.0361911271713893,0.0404160555105327,0.0452802554843313,
0.0519951231717162,0.0723822543427787,0.0927693855138412,0.0994842532012261,
0.104348453175025,0.108573381514168),.UNSPECIFIED.);
#26=PLANE('',#376);
#27=PLANE('',#383);
#28=PLANE('',#390);
#29=PLANE('',#397);
#30=PLANE('',#405);
#31=PLANE('',#412);
#32=PLANE('',#413);
#33=PLANE('',#422);
#34=PLANE('',#423);
#35=LINE('',#559,#51);
#36=LINE('',#570,#52);
#37=LINE('',#581,#53);
#38=LINE('',#592,#54);
#39=LINE('',#624,#55);
#40=LINE('',#627,#56);
#41=LINE('',#637,#57);
#42=LINE('',#641,#58);
#43=LINE('',#645,#59);
#44=LINE('',#649,#60);
#45=LINE('',#653,#61);
#46=LINE('',#656,#62);
#47=LINE('',#659,#63);
#48=LINE('',#662,#64);
#49=LINE('',#664,#65);
#50=LINE('',#665,#66);
#51=VECTOR('',#436,0.499999988824129);
#52=VECTOR('',#451,0.499999988824129);
#53=VECTOR('',#466,0.499999988824129);
#54=VECTOR('',#481,0.499999988824129);
#55=VECTOR('',#498,10.);
#56=VECTOR('',#501,10.);
#57=VECTOR('',#514,0.499999988824129);
#58=VECTOR('',#521,10.);
#59=VECTOR('',#524,10.);
#60=VECTOR('',#527,10.);
#61=VECTOR('',#532,10.);
#62=VECTOR('',#535,10.);
#63=VECTOR('',#538,10.);
#64=VECTOR('',#541,10.);
#65=VECTOR('',#544,10.);
#66=VECTOR('',#545,10.);
#67=CYLINDRICAL_SURFACE('',#374,0.499999988824129);
#68=CYLINDRICAL_SURFACE('',#381,0.499999988824129);
#69=CYLINDRICAL_SURFACE('',#388,0.499999988824129);
#70=CYLINDRICAL_SURFACE('',#395,0.499999988824129);
#71=CYLINDRICAL_SURFACE('',#403,0.499999988824129);
#72=CYLINDRICAL_SURFACE('',#410,0.499999988824129);
#73=CYLINDRICAL_SURFACE('',#414,2.);
#74=CYLINDRICAL_SURFACE('',#417,2.);
#75=CYLINDRICAL_SURFACE('',#419,2.);
#76=CYLINDRICAL_SURFACE('',#421,2.);
#77=FACE_OUTER_BOUND('',#102,.T.);
#78=FACE_OUTER_BOUND('',#103,.T.);
#79=FACE_OUTER_BOUND('',#104,.T.);
#80=FACE_OUTER_BOUND('',#105,.T.);
#81=FACE_OUTER_BOUND('',#106,.T.);
#82=FACE_OUTER_BOUND('',#107,.T.);
#83=FACE_OUTER_BOUND('',#108,.T.);
#84=FACE_OUTER_BOUND('',#109,.T.);
#85=FACE_OUTER_BOUND('',#110,.T.);
#86=FACE_OUTER_BOUND('',#111,.T.);
#87=FACE_OUTER_BOUND('',#112,.T.);
#88=FACE_OUTER_BOUND('',#113,.T.);
#89=FACE_OUTER_BOUND('',#114,.T.);
#90=FACE_OUTER_BOUND('',#115,.T.);
#91=FACE_OUTER_BOUND('',#116,.T.);
#92=FACE_OUTER_BOUND('',#117,.T.);
#93=FACE_OUTER_BOUND('',#118,.T.);
#94=FACE_OUTER_BOUND('',#119,.T.);
#95=FACE_OUTER_BOUND('',#120,.T.);
#96=FACE_OUTER_BOUND('',#121,.T.);
#97=FACE_OUTER_BOUND('',#122,.T.);
#98=FACE_OUTER_BOUND('',#123,.T.);
#99=FACE_OUTER_BOUND('',#124,.T.);
#100=FACE_OUTER_BOUND('',#125,.T.);
#101=FACE_OUTER_BOUND('',#126,.T.);
#102=EDGE_LOOP('',(#233,#234,#235,#236));
#103=EDGE_LOOP('',(#237,#238,#239,#240));
#104=EDGE_LOOP('',(#241));
#105=EDGE_LOOP('',(#242,#243,#244,#245));
#106=EDGE_LOOP('',(#246,#247,#248,#249));
#107=EDGE_LOOP('',(#250));
#108=EDGE_LOOP('',(#251,#252,#253,#254));
#109=EDGE_LOOP('',(#255,#256,#257,#258));
#110=EDGE_LOOP('',(#259));
#111=EDGE_LOOP('',(#260,#261,#262,#263));
#112=EDGE_LOOP('',(#264,#265,#266,#267));
#113=EDGE_LOOP('',(#268));
#114=EDGE_LOOP('',(#269,#270,#271,#272,#273,#274));
#115=EDGE_LOOP('',(#275,#276,#277,#278,#279));
#116=EDGE_LOOP('',(#280));
#117=EDGE_LOOP('',(#281,#282,#283,#284));
#118=EDGE_LOOP('',(#285,#286,#287,#288));
#119=EDGE_LOOP('',(#289));
#120=EDGE_LOOP('',(#290,#291,#292,#293));
#121=EDGE_LOOP('',(#294,#295,#296,#297));
#122=EDGE_LOOP('',(#298,#299,#300,#301));
#123=EDGE_LOOP('',(#302,#303,#304,#305));
#124=EDGE_LOOP('',(#306,#307,#308,#309));
#125=EDGE_LOOP('',(#310,#311,#312,#313));
#126=EDGE_LOOP('',(#314,#315,#316,#317));
#127=EDGE_LOOP('',(#318));
#128=EDGE_LOOP('',(#319,#320));
#129=EDGE_LOOP('',(#321));
#130=EDGE_LOOP('',(#322));
#131=EDGE_LOOP('',(#323));
#132=EDGE_LOOP('',(#324));
#133=CIRCLE('',#371,0.299999988824129);
#134=CIRCLE('',#372,0.2);
#135=CIRCLE('',#373,0.499999988824129);
#136=CIRCLE('',#375,0.499999988824129);
#137=CIRCLE('',#378,0.299999988824129);
#138=CIRCLE('',#379,0.2);
#139=CIRCLE('',#380,0.499999988824129);
#140=CIRCLE('',#382,0.499999988824129);
#141=CIRCLE('',#385,0.299999988824129);
#142=CIRCLE('',#386,0.2);
#143=CIRCLE('',#387,0.499999988824129);
#144=CIRCLE('',#389,0.499999988824129);
#145=CIRCLE('',#392,0.299999988824129);
#146=CIRCLE('',#393,0.2);
#147=CIRCLE('',#394,0.499999988824129);
#148=CIRCLE('',#396,0.499999988824129);
#149=CIRCLE('',#399,0.299999988824129);
#150=CIRCLE('',#400,0.2);
#151=CIRCLE('',#401,0.499999988824129);
#152=CIRCLE('',#402,0.499999988824129);
#153=CIRCLE('',#404,0.499999988824129);
#154=CIRCLE('',#407,0.299999988824129);
#155=CIRCLE('',#408,0.2);
#156=CIRCLE('',#409,0.499999988824129);
#157=CIRCLE('',#411,0.499999988824129);
#158=VERTEX_POINT('',#552);
#159=VERTEX_POINT('',#554);
#160=VERTEX_POINT('',#558);
#161=VERTEX_POINT('',#563);
#162=VERTEX_POINT('',#565);
#163=VERTEX_POINT('',#569);
#164=VERTEX_POINT('',#574);
#165=VERTEX_POINT('',#576);
#166=VERTEX_POINT('',#580);
#167=VERTEX_POINT('',#585);
#168=VERTEX_POINT('',#587);
#169=VERTEX_POINT('',#591);
#170=VERTEX_POINT('',#596);
#171=VERTEX_POINT('',#598);
#172=VERTEX_POINT('',#600);
#173=VERTEX_POINT('',#602);
#174=VERTEX_POINT('',#623);
#175=VERTEX_POINT('',#625);
#176=VERTEX_POINT('',#630);
#177=VERTEX_POINT('',#632);
#178=VERTEX_POINT('',#636);
#179=VERTEX_POINT('',#643);
#180=VERTEX_POINT('',#644);
#181=VERTEX_POINT('',#646);
#182=VERTEX_POINT('',#648);
#183=VERTEX_POINT('',#652);
#184=VERTEX_POINT('',#654);
#185=VERTEX_POINT('',#658);
#186=VERTEX_POINT('',#660);
#187=EDGE_CURVE('',#158,#158,#133,.T.);
#188=EDGE_CURVE('',#158,#159,#134,.T.);
#189=EDGE_CURVE('',#159,#159,#135,.T.);
#190=EDGE_CURVE('',#159,#160,#35,.T.);
#191=EDGE_CURVE('',#160,#160,#136,.T.);
#192=EDGE_CURVE('',#161,#161,#137,.T.);
#193=EDGE_CURVE('',#161,#162,#138,.T.);
#194=EDGE_CURVE('',#162,#162,#139,.T.);
#195=EDGE_CURVE('',#162,#163,#36,.T.);
#196=EDGE_CURVE('',#163,#163,#140,.T.);
#197=EDGE_CURVE('',#164,#164,#141,.T.);
#198=EDGE_CURVE('',#164,#165,#142,.T.);
#199=EDGE_CURVE('',#165,#165,#143,.T.);
#200=EDGE_CURVE('',#165,#166,#37,.T.);
#201=EDGE_CURVE('',#166,#166,#144,.T.);
#202=EDGE_CURVE('',#167,#167,#145,.T.);
#203=EDGE_CURVE('',#167,#168,#146,.T.);
#204=EDGE_CURVE('',#168,#168,#147,.T.);
#205=EDGE_CURVE('',#168,#169,#38,.T.);
#206=EDGE_CURVE('',#169,#169,#148,.T.);
#207=EDGE_CURVE('',#170,#170,#149,.T.);
#208=EDGE_CURVE('',#170,#171,#150,.T.);
#209=EDGE_CURVE('',#171,#172,#151,.T.);
#210=EDGE_CURVE('',#172,#173,#25,.T.);
#211=EDGE_CURVE('',#173,#171,#152,.T.);
#212=EDGE_CURVE('',#174,#173,#39,.T.);
#213=EDGE_CURVE('',#175,#174,#153,.T.);
#214=EDGE_CURVE('',#175,#172,#40,.T.);
#215=EDGE_CURVE('',#176,#176,#154,.T.);
#216=EDGE_CURVE('',#176,#177,#155,.T.);
#217=EDGE_CURVE('',#177,#177,#156,.T.);
#218=EDGE_CURVE('',#177,#178,#41,.T.);
#219=EDGE_CURVE('',#178,#178,#157,.T.);
#220=EDGE_CURVE('',#174,#175,#42,.T.);
#221=EDGE_CURVE('',#179,#180,#43,.T.);
#222=EDGE_CURVE('',#180,#181,#21,.T.);
#223=EDGE_CURVE('',#182,#181,#44,.T.);
#224=EDGE_CURVE('',#179,#182,#22,.T.);
#225=EDGE_CURVE('',#180,#183,#45,.T.);
#226=EDGE_CURVE('',#183,#184,#23,.T.);
#227=EDGE_CURVE('',#181,#184,#46,.T.);
#228=EDGE_CURVE('',#183,#185,#47,.T.);
#229=EDGE_CURVE('',#185,#186,#24,.T.);
#230=EDGE_CURVE('',#184,#186,#48,.T.);
#231=EDGE_CURVE('',#186,#182,#49,.T.);
#232=EDGE_CURVE('',#185,#179,#50,.T.);
#233=ORIENTED_EDGE('',*,*,#187,.T.);
#234=ORIENTED_EDGE('',*,*,#188,.T.);
#235=ORIENTED_EDGE('',*,*,#189,.T.);
#236=ORIENTED_EDGE('',*,*,#188,.F.);
#237=ORIENTED_EDGE('',*,*,#189,.F.);
#238=ORIENTED_EDGE('',*,*,#190,.T.);
#239=ORIENTED_EDGE('',*,*,#191,.F.);
#240=ORIENTED_EDGE('',*,*,#190,.F.);
#241=ORIENTED_EDGE('',*,*,#187,.F.);
#242=ORIENTED_EDGE('',*,*,#192,.T.);
#243=ORIENTED_EDGE('',*,*,#193,.T.);
#244=ORIENTED_EDGE('',*,*,#194,.T.);
#245=ORIENTED_EDGE('',*,*,#193,.F.);
#246=ORIENTED_EDGE('',*,*,#194,.F.);
#247=ORIENTED_EDGE('',*,*,#195,.T.);
#248=ORIENTED_EDGE('',*,*,#196,.F.);
#249=ORIENTED_EDGE('',*,*,#195,.F.);
#250=ORIENTED_EDGE('',*,*,#192,.F.);
#251=ORIENTED_EDGE('',*,*,#197,.T.);
#252=ORIENTED_EDGE('',*,*,#198,.T.);
#253=ORIENTED_EDGE('',*,*,#199,.T.);
#254=ORIENTED_EDGE('',*,*,#198,.F.);
#255=ORIENTED_EDGE('',*,*,#199,.F.);
#256=ORIENTED_EDGE('',*,*,#200,.T.);
#257=ORIENTED_EDGE('',*,*,#201,.F.);
#258=ORIENTED_EDGE('',*,*,#200,.F.);
#259=ORIENTED_EDGE('',*,*,#197,.F.);
#260=ORIENTED_EDGE('',*,*,#202,.T.);
#261=ORIENTED_EDGE('',*,*,#203,.T.);
#262=ORIENTED_EDGE('',*,*,#204,.T.);
#263=ORIENTED_EDGE('',*,*,#203,.F.);
#264=ORIENTED_EDGE('',*,*,#204,.F.);
#265=ORIENTED_EDGE('',*,*,#205,.T.);
#266=ORIENTED_EDGE('',*,*,#206,.F.);
#267=ORIENTED_EDGE('',*,*,#205,.F.);
#268=ORIENTED_EDGE('',*,*,#202,.F.);
#269=ORIENTED_EDGE('',*,*,#207,.T.);
#270=ORIENTED_EDGE('',*,*,#208,.T.);
#271=ORIENTED_EDGE('',*,*,#209,.T.);
#272=ORIENTED_EDGE('',*,*,#210,.T.);
#273=ORIENTED_EDGE('',*,*,#211,.T.);
#274=ORIENTED_EDGE('',*,*,#208,.F.);
#275=ORIENTED_EDGE('',*,*,#211,.F.);
#276=ORIENTED_EDGE('',*,*,#212,.F.);
#277=ORIENTED_EDGE('',*,*,#213,.F.);
#278=ORIENTED_EDGE('',*,*,#214,.T.);
#279=ORIENTED_EDGE('',*,*,#209,.F.);
#280=ORIENTED_EDGE('',*,*,#207,.F.);
#281=ORIENTED_EDGE('',*,*,#215,.T.);
#282=ORIENTED_EDGE('',*,*,#216,.T.);
#283=ORIENTED_EDGE('',*,*,#217,.T.);
#284=ORIENTED_EDGE('',*,*,#216,.F.);
#285=ORIENTED_EDGE('',*,*,#217,.F.);
#286=ORIENTED_EDGE('',*,*,#218,.T.);
#287=ORIENTED_EDGE('',*,*,#219,.F.);
#288=ORIENTED_EDGE('',*,*,#218,.F.);
#289=ORIENTED_EDGE('',*,*,#215,.F.);
#290=ORIENTED_EDGE('',*,*,#210,.F.);
#291=ORIENTED_EDGE('',*,*,#214,.F.);
#292=ORIENTED_EDGE('',*,*,#220,.F.);
#293=ORIENTED_EDGE('',*,*,#212,.T.);
#294=ORIENTED_EDGE('',*,*,#221,.T.);
#295=ORIENTED_EDGE('',*,*,#222,.T.);
#296=ORIENTED_EDGE('',*,*,#223,.F.);
#297=ORIENTED_EDGE('',*,*,#224,.F.);
#298=ORIENTED_EDGE('',*,*,#225,.T.);
#299=ORIENTED_EDGE('',*,*,#226,.T.);
#300=ORIENTED_EDGE('',*,*,#227,.F.);
#301=ORIENTED_EDGE('',*,*,#222,.F.);
#302=ORIENTED_EDGE('',*,*,#228,.T.);
#303=ORIENTED_EDGE('',*,*,#229,.T.);
#304=ORIENTED_EDGE('',*,*,#230,.F.);
#305=ORIENTED_EDGE('',*,*,#226,.F.);
#306=ORIENTED_EDGE('',*,*,#231,.F.);
#307=ORIENTED_EDGE('',*,*,#229,.F.);
#308=ORIENTED_EDGE('',*,*,#232,.T.);
#309=ORIENTED_EDGE('',*,*,#224,.T.);
#310=ORIENTED_EDGE('',*,*,#221,.F.);
#311=ORIENTED_EDGE('',*,*,#232,.F.);
#312=ORIENTED_EDGE('',*,*,#228,.F.);
#313=ORIENTED_EDGE('',*,*,#225,.F.);
#314=ORIENTED_EDGE('',*,*,#223,.T.);
#315=ORIENTED_EDGE('',*,*,#227,.T.);
#316=ORIENTED_EDGE('',*,*,#230,.T.);
#317=ORIENTED_EDGE('',*,*,#231,.T.);
#318=ORIENTED_EDGE('',*,*,#201,.T.);
#319=ORIENTED_EDGE('',*,*,#213,.T.);
#320=ORIENTED_EDGE('',*,*,#220,.T.);
#321=ORIENTED_EDGE('',*,*,#206,.T.);
#322=ORIENTED_EDGE('',*,*,#196,.T.);
#323=ORIENTED_EDGE('',*,*,#219,.T.);
#324=ORIENTED_EDGE('',*,*,#191,.T.);
#325=TOROIDAL_SURFACE('',#370,0.299999988824129,0.2);
#326=TOROIDAL_SURFACE('',#377,0.299999988824129,0.2);
#327=TOROIDAL_SURFACE('',#384,0.299999988824129,0.2);
#328=TOROIDAL_SURFACE('',#391,0.299999988824129,0.2);
#329=TOROIDAL_SURFACE('',#398,0.299999988824129,0.2);
#330=TOROIDAL_SURFACE('',#406,0.299999988824129,0.2);
#331=ADVANCED_FACE('',(#77),#325,.T.);
#332=ADVANCED_FACE('',(#78),#67,.T.);
#333=ADVANCED_FACE('',(#79),#26,.F.);
#334=ADVANCED_FACE('',(#80),#326,.T.);
#335=ADVANCED_FACE('',(#81),#68,.T.);
#336=ADVANCED_FACE('',(#82),#27,.F.);
#337=ADVANCED_FACE('',(#83),#327,.T.);
#338=ADVANCED_FACE('',(#84),#69,.T.);
#339=ADVANCED_FACE('',(#85),#28,.F.);
#340=ADVANCED_FACE('',(#86),#328,.T.);
#341=ADVANCED_FACE('',(#87),#70,.T.);
#342=ADVANCED_FACE('',(#88),#29,.F.);
#343=ADVANCED_FACE('',(#89),#329,.T.);
#344=ADVANCED_FACE('',(#90),#71,.T.);
#345=ADVANCED_FACE('',(#91),#30,.F.);
#346=ADVANCED_FACE('',(#92),#330,.T.);
#347=ADVANCED_FACE('',(#93),#72,.T.);
#348=ADVANCED_FACE('',(#94),#31,.F.);
#349=ADVANCED_FACE('',(#95),#32,.T.);
#350=ADVANCED_FACE('',(#96),#73,.T.);
#351=ADVANCED_FACE('',(#97),#74,.T.);
#352=ADVANCED_FACE('',(#98),#75,.T.);
#353=ADVANCED_FACE('',(#99),#76,.T.);
#354=ADVANCED_FACE('',(#100),#33,.T.);
#355=ADVANCED_FACE('',(#101,#15,#16,#17,#18,#19,#20),#34,.F.);
#356=CLOSED_SHELL('',(#331,#332,#333,#334,#335,#336,#337,#338,#339,#340,
#341,#342,#343,#344,#345,#346,#347,#348,#349,#350,#351,#352,#353,#354,#355));
#357=DERIVED_UNIT_ELEMENT(#359,1.);
#358=DERIVED_UNIT_ELEMENT(#673,-3.);
#359=(
MASS_UNIT()
NAMED_UNIT(*)
SI_UNIT(.KILO.,.GRAM.)
);
#360=DERIVED_UNIT((#357,#358));
#361=MEASURE_REPRESENTATION_ITEM('density measure',
POSITIVE_RATIO_MEASURE(7850.),#360);
#362=PROPERTY_DEFINITION_REPRESENTATION(#367,#364);
#363=PROPERTY_DEFINITION_REPRESENTATION(#368,#365);
#364=REPRESENTATION('material name',(#366),#670);
#365=REPRESENTATION('density',(#361),#670);
#366=DESCRIPTIVE_REPRESENTATION_ITEM('Steel','Steel');
#367=PROPERTY_DEFINITION('material property','material name',#680);
#368=PROPERTY_DEFINITION('material property','density of part',#680);
#369=AXIS2_PLACEMENT_3D('',#550,#424,#425);
#370=AXIS2_PLACEMENT_3D('',#551,#426,#427);
#371=AXIS2_PLACEMENT_3D('',#553,#428,#429);
#372=AXIS2_PLACEMENT_3D('',#555,#430,#431);
#373=AXIS2_PLACEMENT_3D('',#556,#432,#433);
#374=AXIS2_PLACEMENT_3D('',#557,#434,#435);
#375=AXIS2_PLACEMENT_3D('',#560,#437,#438);
#376=AXIS2_PLACEMENT_3D('',#561,#439,#440);
#377=AXIS2_PLACEMENT_3D('',#562,#441,#442);
#378=AXIS2_PLACEMENT_3D('',#564,#443,#444);
#379=AXIS2_PLACEMENT_3D('',#566,#445,#446);
#380=AXIS2_PLACEMENT_3D('',#567,#447,#448);
#381=AXIS2_PLACEMENT_3D('',#568,#449,#450);
#382=AXIS2_PLACEMENT_3D('',#571,#452,#453);
#383=AXIS2_PLACEMENT_3D('',#572,#454,#455);
#384=AXIS2_PLACEMENT_3D('',#573,#456,#457);
#385=AXIS2_PLACEMENT_3D('',#575,#458,#459);
#386=AXIS2_PLACEMENT_3D('',#577,#460,#461);
#387=AXIS2_PLACEMENT_3D('',#578,#462,#463);
#388=AXIS2_PLACEMENT_3D('',#579,#464,#465);
#389=AXIS2_PLACEMENT_3D('',#582,#467,#468);
#390=AXIS2_PLACEMENT_3D('',#583,#469,#470);
#391=AXIS2_PLACEMENT_3D('',#584,#471,#472);
#392=AXIS2_PLACEMENT_3D('',#586,#473,#474);
#393=AXIS2_PLACEMENT_3D('',#588,#475,#476);
#394=AXIS2_PLACEMENT_3D('',#589,#477,#478);
#395=AXIS2_PLACEMENT_3D('',#590,#479,#480);
#396=AXIS2_PLACEMENT_3D('',#593,#482,#483);
#397=AXIS2_PLACEMENT_3D('',#594,#484,#485);
#398=AXIS2_PLACEMENT_3D('',#595,#486,#487);
#399=AXIS2_PLACEMENT_3D('',#597,#488,#489);
#400=AXIS2_PLACEMENT_3D('',#599,#490,#491);
#401=AXIS2_PLACEMENT_3D('',#601,#492,#493);
#402=AXIS2_PLACEMENT_3D('',#621,#494,#495);
#403=AXIS2_PLACEMENT_3D('',#622,#496,#497);
#404=AXIS2_PLACEMENT_3D('',#626,#499,#500);
#405=AXIS2_PLACEMENT_3D('',#628,#502,#503);
#406=AXIS2_PLACEMENT_3D('',#629,#504,#505);
#407=AXIS2_PLACEMENT_3D('',#631,#506,#507);
#408=AXIS2_PLACEMENT_3D('',#633,#508,#509);
#409=AXIS2_PLACEMENT_3D('',#634,#510,#511);
#410=AXIS2_PLACEMENT_3D('',#635,#512,#513);
#411=AXIS2_PLACEMENT_3D('',#638,#515,#516);
#412=AXIS2_PLACEMENT_3D('',#639,#517,#518);
#413=AXIS2_PLACEMENT_3D('',#640,#519,#520);
#414=AXIS2_PLACEMENT_3D('',#642,#522,#523);
#415=AXIS2_PLACEMENT_3D('',#647,#525,#526);
#416=AXIS2_PLACEMENT_3D('',#650,#528,#529);
#417=AXIS2_PLACEMENT_3D('',#651,#530,#531);
#418=AXIS2_PLACEMENT_3D('',#655,#533,#534);
#419=AXIS2_PLACEMENT_3D('',#657,#536,#537);
#420=AXIS2_PLACEMENT_3D('',#661,#539,#540);
#421=AXIS2_PLACEMENT_3D('',#663,#542,#543);
#422=AXIS2_PLACEMENT_3D('',#666,#546,#547);
#423=AXIS2_PLACEMENT_3D('',#667,#548,#549);
#424=DIRECTION('axis',(0.,0.,1.));
#425=DIRECTION('refdir',(1.,0.,0.));
#426=DIRECTION('center_axis',(0.,0.,1.));
#427=DIRECTION('ref_axis',(1.,0.,0.));
#428=DIRECTION('center_axis',(0.,0.,-1.));
#429=DIRECTION('ref_axis',(1.,0.,0.));
#430=DIRECTION('center_axis',(0.,-1.,0.));
#431=DIRECTION('ref_axis',(-1.,0.,0.));
#432=DIRECTION('center_axis',(0.,0.,1.));
#433=DIRECTION('ref_axis',(1.,0.,0.));
#434=DIRECTION('center_axis',(0.,0.,1.));
#435=DIRECTION('ref_axis',(1.,0.,0.));
#436=DIRECTION('',(0.,0.,-1.));
#437=DIRECTION('center_axis',(0.,0.,-1.));
#438=DIRECTION('ref_axis',(1.,0.,0.));
#439=DIRECTION('center_axis',(0.,0.,-1.));
#440=DIRECTION('ref_axis',(1.,0.,0.));
#441=DIRECTION('center_axis',(0.,0.,1.));
#442=DIRECTION('ref_axis',(1.,0.,0.));
#443=DIRECTION('center_axis',(0.,0.,-1.));
#444=DIRECTION('ref_axis',(1.,0.,0.));
#445=DIRECTION('center_axis',(0.,-1.,0.));
#446=DIRECTION('ref_axis',(-1.,0.,0.));
#447=DIRECTION('center_axis',(0.,0.,1.));
#448=DIRECTION('ref_axis',(1.,0.,0.));
#449=DIRECTION('center_axis',(0.,0.,1.));
#450=DIRECTION('ref_axis',(1.,0.,0.));
#451=DIRECTION('',(0.,0.,-1.));
#452=DIRECTION('center_axis',(0.,0.,-1.));
#453=DIRECTION('ref_axis',(1.,0.,0.));
#454=DIRECTION('center_axis',(0.,0.,-1.));
#455=DIRECTION('ref_axis',(1.,0.,0.));
#456=DIRECTION('center_axis',(0.,0.,1.));
#457=DIRECTION('ref_axis',(1.,0.,0.));
#458=DIRECTION('center_axis',(0.,0.,-1.));
#459=DIRECTION('ref_axis',(1.,0.,0.));
#460=DIRECTION('center_axis',(0.,-1.,0.));
#461=DIRECTION('ref_axis',(-1.,0.,0.));
#462=DIRECTION('center_axis',(0.,0.,1.));
#463=DIRECTION('ref_axis',(1.,0.,0.));
#464=DIRECTION('center_axis',(0.,0.,1.));
#465=DIRECTION('ref_axis',(1.,0.,0.));
#466=DIRECTION('',(0.,0.,-1.));
#467=DIRECTION('center_axis',(0.,0.,-1.));
#468=DIRECTION('ref_axis',(1.,0.,0.));
#469=DIRECTION('center_axis',(0.,0.,-1.));
#470=DIRECTION('ref_axis',(1.,0.,0.));
#471=DIRECTION('center_axis',(0.,0.,1.));
#472=DIRECTION('ref_axis',(1.,0.,0.));
#473=DIRECTION('center_axis',(0.,0.,-1.));
#474=DIRECTION('ref_axis',(1.,0.,0.));
#475=DIRECTION('center_axis',(0.,-1.,0.));
#476=DIRECTION('ref_axis',(-1.,0.,0.));
#477=DIRECTION('center_axis',(0.,0.,1.));
#478=DIRECTION('ref_axis',(1.,0.,0.));
#479=DIRECTION('center_axis',(0.,0.,1.));
#480=DIRECTION('ref_axis',(1.,0.,0.));
#481=DIRECTION('',(0.,0.,-1.));
#482=DIRECTION('center_axis',(0.,0.,-1.));
#483=DIRECTION('ref_axis',(1.,0.,0.));
#484=DIRECTION('center_axis',(0.,0.,-1.));
#485=DIRECTION('ref_axis',(1.,0.,0.));
#486=DIRECTION('center_axis',(0.,0.,1.));
#487=DIRECTION('ref_axis',(1.,0.,0.));
#488=DIRECTION('center_axis',(0.,0.,-1.));
#489=DIRECTION('ref_axis',(-1.,0.,0.));
#490=DIRECTION('center_axis',(0.,-1.,0.));
#491=DIRECTION('ref_axis',(-1.,0.,0.));
#492=DIRECTION('center_axis',(0.,0.,1.));
#493=DIRECTION('ref_axis',(-1.,0.,0.));
#494=DIRECTION('center_axis',(0.,0.,1.));
#495=DIRECTION('ref_axis',(-1.,0.,0.));
#496=DIRECTION('center_axis',(0.,0.,1.));
#497=DIRECTION('ref_axis',(-1.,1.22464679914735E-16,0.));
#498=DIRECTION('',(0.,0.,1.));
#499=DIRECTION('center_axis',(0.,0.,-1.));
#500=DIRECTION('ref_axis',(1.,0.,0.));
#501=DIRECTION('',(0.,0.,1.));
#502=DIRECTION('center_axis',(0.,0.,-1.));
#503=DIRECTION('ref_axis',(1.,0.,0.));
#504=DIRECTION('center_axis',(0.,0.,1.));
#505=DIRECTION('ref_axis',(1.,0.,0.));
#506=DIRECTION('center_axis',(0.,0.,-1.));
#507=DIRECTION('ref_axis',(1.,0.,0.));
#508=DIRECTION('center_axis',(0.,-1.,0.));
#509=DIRECTION('ref_axis',(-1.,0.,0.));
#510=DIRECTION('center_axis',(0.,0.,1.));
#511=DIRECTION('ref_axis',(1.,0.,0.));
#512=DIRECTION('center_axis',(0.,0.,1.));
#513=DIRECTION('ref_axis',(1.,0.,0.));
#514=DIRECTION('',(0.,0.,-1.));
#515=DIRECTION('center_axis',(0.,0.,-1.));
#516=DIRECTION('ref_axis',(1.,0.,0.));
#517=DIRECTION('center_axis',(0.,0.,-1.));
#518=DIRECTION('ref_axis',(1.,0.,0.));
#519=DIRECTION('center_axis',(1.,0.,0.));
#520=DIRECTION('ref_axis',(0.,1.,0.));
#521=DIRECTION('',(0.,-1.,0.));
#522=DIRECTION('center_axis',(1.,0.,0.));
#523=DIRECTION('ref_axis',(0.,0.707106781186548,-0.707106781186547));
#524=DIRECTION('',(-1.,0.,0.));
#525=DIRECTION('center_axis',(0.707106781186548,0.707106781186548,-1.57009245868378E-15));
#526=DIRECTION('ref_axis',(-0.707106781186548,0.707106781186548,-1.57009245868377E-15));
#527=DIRECTION('',(-1.,0.,0.));
#528=DIRECTION('center_axis',(0.707106781186548,-0.707106781186548,1.57009245868378E-15));
#529=DIRECTION('ref_axis',(0.707106781186548,0.707106781186548,1.57009245868377E-15));
#530=DIRECTION('center_axis',(0.,1.,0.));
#531=DIRECTION('ref_axis',(-0.707106781186549,0.,-0.707106781186546));
#532=DIRECTION('',(0.,-1.,0.));
#533=DIRECTION('center_axis',(-0.707106781186548,0.707106781186548,3.14018491736755E-15));
#534=DIRECTION('ref_axis',(-0.707106781186547,-0.707106781186547,3.14018491736755E-15));
#535=DIRECTION('',(0.,-1.,0.));
#536=DIRECTION('center_axis',(-1.,0.,0.));
#537=DIRECTION('ref_axis',(0.,-0.707106781186548,-0.707106781186547));
#538=DIRECTION('',(1.,0.,0.));
#539=DIRECTION('center_axis',(-0.707106781186548,-0.707106781186548,-1.57009245868378E-15));
#540=DIRECTION('ref_axis',(0.707106781186548,-0.707106781186548,-1.57009245868377E-15));
#541=DIRECTION('',(1.,0.,0.));
#542=DIRECTION('center_axis',(0.,-1.,0.));
#543=DIRECTION('ref_axis',(0.707106781186548,0.,-0.707106781186547));
#544=DIRECTION('',(0.,1.,0.));
#545=DIRECTION('',(0.,1.,0.));
#546=DIRECTION('center_axis',(0.,0.,-1.));
#547=DIRECTION('ref_axis',(-1.,0.,0.));
#548=DIRECTION('center_axis',(0.,0.,-1.));
#549=DIRECTION('ref_axis',(1.,0.,0.));
#550=CARTESIAN_POINT('',(0.,0.,0.));
#551=CARTESIAN_POINT('Origin',(40.4000009946525,30.3000007286668,7.68571359916551));
#552=CARTESIAN_POINT('',(40.1000010058284,30.3000007286668,7.88571359916551));
#553=CARTESIAN_POINT('Origin',(40.4000009946525,30.3000007286668,7.88571359916551));
#554=CARTESIAN_POINT('',(39.9000010058284,30.3000007286668,7.68571359916551));
#555=CARTESIAN_POINT('Origin',(40.1000010058284,30.3000007286668,7.68571359916551));
#556=CARTESIAN_POINT('Origin',(40.4000009946525,30.3000007286668,7.68571359916551));
#557=CARTESIAN_POINT('Origin',(40.4000009946525,30.3000007286668,6.38571359916551));
#558=CARTESIAN_POINT('',(39.9000010058284,30.3000007286668,6.38571359916551));
#559=CARTESIAN_POINT('',(39.9000010058284,30.3000007286668,6.38571359916551));
#560=CARTESIAN_POINT('Origin',(40.4000009946525,30.3000007286668,6.38571359916551));
#561=CARTESIAN_POINT('Origin',(40.4000009946525,30.3000007286668,7.88571359916551));
#562=CARTESIAN_POINT('Origin',(40.4000009946525,-1.14999927133322,7.68571359916551));
#563=CARTESIAN_POINT('',(40.1000010058284,-1.14999927133322,7.88571359916551));
#564=CARTESIAN_POINT('Origin',(40.4000009946525,-1.14999927133322,7.88571359916551));
#565=CARTESIAN_POINT('',(39.9000010058284,-1.14999927133322,7.68571359916551));
#566=CARTESIAN_POINT('Origin',(40.1000010058284,-1.14999927133322,7.68571359916551));
#567=CARTESIAN_POINT('Origin',(40.4000009946525,-1.14999927133322,7.68571359916551));
#568=CARTESIAN_POINT('Origin',(40.4000009946525,-1.14999927133322,6.38571359916551));
#569=CARTESIAN_POINT('',(39.9000010058284,-1.14999927133322,6.38571359916551));
#570=CARTESIAN_POINT('',(39.9000010058284,-1.14999927133322,6.38571359916551));
#571=CARTESIAN_POINT('Origin',(40.4000009946525,-1.14999927133322,6.38571359916551));
#572=CARTESIAN_POINT('Origin',(40.4000009946525,-1.14999927133322,7.88571359916551));
#573=CARTESIAN_POINT('Origin',(40.4000009946525,-32.5999992713332,7.68571359916551));
#574=CARTESIAN_POINT('',(40.1000010058284,-32.5999992713332,7.88571359916551));
#575=CARTESIAN_POINT('Origin',(40.4000009946525,-32.5999992713332,7.88571359916551));
#576=CARTESIAN_POINT('',(39.9000010058284,-32.5999992713332,7.68571359916551));
#577=CARTESIAN_POINT('Origin',(40.1000010058284,-32.5999992713332,7.68571359916551));
#578=CARTESIAN_POINT('Origin',(40.4000009946525,-32.5999992713332,7.68571359916551));
#579=CARTESIAN_POINT('Origin',(40.4000009946525,-32.5999992713332,6.38571359916551));
#580=CARTESIAN_POINT('',(39.9000010058284,-32.5999992713332,6.38571359916551));
#581=CARTESIAN_POINT('',(39.9000010058284,-32.5999992713332,6.38571359916551));
#582=CARTESIAN_POINT('Origin',(40.4000009946525,-32.5999992713332,6.38571359916551));
#583=CARTESIAN_POINT('Origin',(40.4000009946525,-32.5999992713332,7.88571359916551));
#584=CARTESIAN_POINT('Origin',(-44.3999990053475,30.3000007286668,7.68571359916551));
#585=CARTESIAN_POINT('',(-44.6999989941716,30.3000007286668,7.88571359916551));
#586=CARTESIAN_POINT('Origin',(-44.3999990053475,30.3000007286668,7.88571359916551));
#587=CARTESIAN_POINT('',(-44.8999989941716,30.3000007286668,7.68571359916551));
#588=CARTESIAN_POINT('Origin',(-44.6999989941716,30.3000007286668,7.68571359916551));
#589=CARTESIAN_POINT('Origin',(-44.3999990053475,30.3000007286668,7.68571359916551));
#590=CARTESIAN_POINT('Origin',(-44.3999990053475,30.3000007286668,6.38571359916551));
#591=CARTESIAN_POINT('',(-44.8999989941716,30.3000007286668,6.38571359916551));
#592=CARTESIAN_POINT('',(-44.8999989941716,30.3000007286668,6.38571359916551));
#593=CARTESIAN_POINT('Origin',(-44.3999990053475,30.3000007286668,6.38571359916551));
#594=CARTESIAN_POINT('Origin',(-44.3999990053475,30.3000007286668,7.88571359916551));
#595=CARTESIAN_POINT('Origin',(-44.3999990053475,-1.14999927133322,7.68571359916551));
#596=CARTESIAN_POINT('',(-44.6999989941716,-1.14999927133322,7.88571359916551));
#597=CARTESIAN_POINT('Origin',(-44.3999990053475,-1.14999927133322,7.88571359916551));
#598=CARTESIAN_POINT('',(-44.8999989941716,-1.14999927133322,7.68571359916551));
#599=CARTESIAN_POINT('Origin',(-44.6999989941716,-1.14999927133322,7.68571359916551));
#600=CARTESIAN_POINT('',(-44.0000000000047,-1.45000057891184,7.68571359916551));
#601=CARTESIAN_POINT('Origin',(-44.3999990053475,-1.14999927133322,7.68571359916551));
#602=CARTESIAN_POINT('',(-44.0000000000047,-0.849997963754593,7.68571359916551));
#603=CARTESIAN_POINT('Ctrl Pts',(-44.0000000000047,-1.45000057891184,7.6857135991655));
#604=CARTESIAN_POINT('Ctrl Pts',(-44.0000000000047,-1.45000057891184,7.69979669362932));
#605=CARTESIAN_POINT('Ctrl Pts',(-44.0000000000047,-1.44683716783923,7.7163976918499));
#606=CARTESIAN_POINT('Ctrl Pts',(-44.0000000000047,-1.43604493457612,7.74470743626506));
#607=CARTESIAN_POINT('Ctrl Pts',(-44.0000000000047,-1.42567545936007,7.76117076053161));
#608=CARTESIAN_POINT('Ctrl Pts',(-44.0000000000047,-1.40013690776804,7.79011039547028));
#609=CARTESIAN_POINT('Ctrl Pts',(-44.0000000000047,-1.37852793612149,7.80606293487077));
#610=CARTESIAN_POINT('Ctrl Pts',(-44.0000000000047,-1.29885571340228,7.84864992630551));
#611=CARTESIAN_POINT('Ctrl Pts',(-44.0000000000047,-1.21795637523676,7.85891924773187));
#612=CARTESIAN_POINT('Ctrl Pts',(-44.0000000000047,-1.08204216742968,7.85891924773187));
#613=CARTESIAN_POINT('Ctrl Pts',(-44.0000000000047,-1.00114282926415,7.84864992630551));
#614=CARTESIAN_POINT('Ctrl Pts',(-44.0000000000047,-0.921470606544949,7.80606293487077));
#615=CARTESIAN_POINT('Ctrl Pts',(-44.0000000000047,-0.899861634898399,7.79011039547028));
#616=CARTESIAN_POINT('Ctrl Pts',(-44.0000000000047,-0.874323083306362,7.76117076053161));
#617=CARTESIAN_POINT('Ctrl Pts',(-44.0000000000047,-0.863953608090314,7.74470743626506));
#618=CARTESIAN_POINT('Ctrl Pts',(-44.0000000000047,-0.853161374827205,7.7163976918499));
#619=CARTESIAN_POINT('Ctrl Pts',(-44.0000000000047,-0.84999796375459,7.69979669362932));
#620=CARTESIAN_POINT('Ctrl Pts',(-44.0000000000047,-0.84999796375459,7.6857135991655));
#621=CARTESIAN_POINT('Origin',(-44.3999990053475,-1.14999927133322,7.68571359916551));
#622=CARTESIAN_POINT('Origin',(-44.3999990053475,-1.14999927133322,6.38571359916551));
#623=CARTESIAN_POINT('',(-44.0000000000047,-0.849997963754593,6.38571359916551));
#624=CARTESIAN_POINT('',(-44.0000000000047,-0.849997963754593,6.38571359916551));
#625=CARTESIAN_POINT('',(-44.0000000000047,-1.45000057891184,6.38571359916551));
#626=CARTESIAN_POINT('Origin',(-44.3999990053475,-1.14999927133322,6.38571359916551));
#627=CARTESIAN_POINT('',(-44.0000000000047,-1.45000057891184,6.38571359916551));
#628=CARTESIAN_POINT('Origin',(-44.4499994970882,-1.14999927133322,7.88571359916551));
#629=CARTESIAN_POINT('Origin',(-44.3999990053475,-32.5999992713332,7.68571359916551));
#630=CARTESIAN_POINT('',(-44.6999989941716,-32.5999992713332,7.88571359916551));
#631=CARTESIAN_POINT('Origin',(-44.3999990053475,-32.5999992713332,7.88571359916551));
#632=CARTESIAN_POINT('',(-44.8999989941716,-32.5999992713332,7.68571359916551));
#633=CARTESIAN_POINT('Origin',(-44.6999989941716,-32.5999992713332,7.68571359916551));
#634=CARTESIAN_POINT('Origin',(-44.3999990053475,-32.5999992713332,7.68571359916551));
#635=CARTESIAN_POINT('Origin',(-44.3999990053475,-32.5999992713332,6.38571359916551));
#636=CARTESIAN_POINT('',(-44.8999989941716,-32.5999992713332,6.38571359916551));
#637=CARTESIAN_POINT('',(-44.8999989941716,-32.5999992713332,6.38571359916551));
#638=CARTESIAN_POINT('Origin',(-44.3999990053475,-32.5999992713332,6.38571359916551));
#639=CARTESIAN_POINT('Origin',(-44.3999990053475,-32.5999992713332,7.88571359916551));
#640=CARTESIAN_POINT('Origin',(-44.0000000000047,-1.45000057891184,6.38571359916551));
#641=CARTESIAN_POINT('',(-44.0000000000047,-1.29910123383108,6.38571359916551));
#642=CARTESIAN_POINT('Origin',(-23.5000000000047,28.8517981112497,6.38571359916551));
#643=CARTESIAN_POINT('',(38.9999999999953,28.8517981112497,4.38571359916551));
#644=CARTESIAN_POINT('',(-43.0000000000047,28.8517981112497,4.38571359916551));
#645=CARTESIAN_POINT('',(-23.5000000000047,28.8517981112497,4.38571359916551));
#646=CARTESIAN_POINT('',(-45.0000000000047,30.8517981112497,6.38571359916551));
#647=CARTESIAN_POINT('Origin',(-43.0000000000047,28.8517981112497,6.38571359916551));
#648=CARTESIAN_POINT('',(40.9999999999953,30.8517981112497,6.38571359916551));
#649=CARTESIAN_POINT('',(40.9999999999953,30.8517981112497,6.38571359916551));
#650=CARTESIAN_POINT('Origin',(38.9999999999953,28.8517981112497,6.38571359916551));
#651=CARTESIAN_POINT('Origin',(-43.0000000000047,-17.1482018887503,6.38571359916551));
#652=CARTESIAN_POINT('',(-43.0000000000047,-31.1482018887503,4.38571359916551));
#653=CARTESIAN_POINT('',(-43.0000000000047,-17.1482018887503,4.38571359916551));
#654=CARTESIAN_POINT('',(-45.0000000000047,-33.1482018887503,6.38571359916551));
#655=CARTESIAN_POINT('Origin',(-43.0000000000047,-31.1482018887503,6.38571359916551));
#656=CARTESIAN_POINT('',(-45.0000000000047,30.8517981112497,6.38571359916551));
#657=CARTESIAN_POINT('Origin',(19.4999999999953,-31.1482018887503,6.38571359916551));
#658=CARTESIAN_POINT('',(38.9999999999953,-31.1482018887503,4.38571359916551));
#659=CARTESIAN_POINT('',(19.4999999999953,-31.1482018887503,4.38571359916551));
#660=CARTESIAN_POINT('',(40.9999999999953,-33.1482018887503,6.38571359916551));
#661=CARTESIAN_POINT('Origin',(38.9999999999953,-31.1482018887503,6.38571359916551));
#662=CARTESIAN_POINT('',(-45.0000000000047,-33.1482018887503,6.38571359916551));
#663=CARTESIAN_POINT('Origin',(38.9999999999953,14.8517981112497,6.38571359916551));
#664=CARTESIAN_POINT('',(40.9999999999953,-33.1482018887503,6.38571359916551));
#665=CARTESIAN_POINT('',(38.9999999999953,14.8517981112497,4.38571359916551));
#666=CARTESIAN_POINT('Origin',(-2.00000000000467,-1.14820188875032,4.38571359916551));
#667=CARTESIAN_POINT('Origin',(-2.00000000000467,-1.14820188875032,6.38571359916551));
#668=UNCERTAINTY_MEASURE_WITH_UNIT(LENGTH_MEASURE(0.01),#672,
'DISTANCE_ACCURACY_VALUE',
'Maximum model space distance between geometric entities at asserted c
onnectivities');
#669=UNCERTAINTY_MEASURE_WITH_UNIT(LENGTH_MEASURE(0.01),#672,
'DISTANCE_ACCURACY_VALUE',
'Maximum model space distance between geometric entities at asserted c
onnectivities');
#670=(
GEOMETRIC_REPRESENTATION_CONTEXT(3)
GLOBAL_UNCERTAINTY_ASSIGNED_CONTEXT((#668))
GLOBAL_UNIT_ASSIGNED_CONTEXT((#672,#674,#675))
REPRESENTATION_CONTEXT('','3D')
);
#671=(
GEOMETRIC_REPRESENTATION_CONTEXT(3)
GLOBAL_UNCERTAINTY_ASSIGNED_CONTEXT((#669))
GLOBAL_UNIT_ASSIGNED_CONTEXT((#672,#674,#675))
REPRESENTATION_CONTEXT('','3D')
);
#672=(
LENGTH_UNIT()
NAMED_UNIT(*)
SI_UNIT(.MILLI.,.METRE.)
);
#673=(
LENGTH_UNIT()
NAMED_UNIT(*)
SI_UNIT($,.METRE.)
);
#674=(
NAMED_UNIT(*)
PLANE_ANGLE_UNIT()
SI_UNIT($,.RADIAN.)
);
#675=(
NAMED_UNIT(*)
SI_UNIT($,.STERADIAN.)
SOLID_ANGLE_UNIT()
);
#676=SHAPE_DEFINITION_REPRESENTATION(#677,#678);
#677=PRODUCT_DEFINITION_SHAPE('',$,#680);
#678=SHAPE_REPRESENTATION('',(#369),#670);
#679=PRODUCT_DEFINITION_CONTEXT('part definition',#684,'design');
#680=PRODUCT_DEFINITION('Bottom','Bottom',#681,#679);
#681=PRODUCT_DEFINITION_FORMATION('',$,#686);
#682=PRODUCT_RELATED_PRODUCT_CATEGORY('Bottom','Bottom',(#686));
#683=APPLICATION_PROTOCOL_DEFINITION('international standard',
'automotive_design',2009,#684);
#684=APPLICATION_CONTEXT(
'Core Data for Automotive Mechanical Design Process');
#685=PRODUCT_CONTEXT('part definition',#684,'mechanical');
#686=PRODUCT('Bottom','Bottom',$,(#685));
#687=PRESENTATION_STYLE_ASSIGNMENT((#688));
#688=SURFACE_STYLE_USAGE(.BOTH.,#689);
#689=SURFACE_SIDE_STYLE('',(#690));
#690=SURFACE_STYLE_FILL_AREA(#691);
#691=FILL_AREA_STYLE('Steel - Satin',(#692));
#692=FILL_AREA_STYLE_COLOUR('Steel - Satin',#693);
#693=COLOUR_RGB('Steel - Satin',0.627450980392157,0.627450980392157,0.627450980392157);
ENDSEC;
END-ISO-10303-21;
