ISO-10303-21;
HEADER;
/* Generated by software containing ST-Developer
 * from STEP Tools, Inc. (www.steptools.com) 
 */

FILE_DESCRIPTION(
/* description */ (''),
/* implementation_level */ '2;1');

FILE_NAME(
/* name */ 'Display Case.step',
/* time_stamp */ '2026-10-03T23:47:52+02:00',
/* author */ (''),
/* organization */ (''),
/* preprocessor_version */ 'ST-DEVELOPER v20.2',
/* originating_system */ 'Autodesk Translation Framework v15.15.0.0',
/* authorisation */ '');

FILE_SCHEMA (('AUTOMOTIVE_DESIGN { 1 0 10303 214 3 1 1 }'));
ENDSEC;

DATA;
#10=MECHANICAL_DESIGN_GEOMETRIC_PRESENTATION_REPRESENTATION('',(#13),#467);
#11=SHAPE_REPRESENTATION_RELATIONSHIP('SRR','None',#474,#12);
#12=ADVANCED_BREP_SHAPE_REPRESENTATION('',(#14),#466);
#13=STYLED_ITEM('',(#483),#14);
#14=MANIFOLD_SOLID_BREP('Display Case',#279);
#15=CYLINDRICAL_SURFACE('',#302,2.25);
#16=CYLINDRICAL_SURFACE('',#304,1.25);
#17=CYLINDRICAL_SURFACE('',#306,1.25);
#18=CYLINDRICAL_SURFACE('',#312,2.25);
#19=FACE_BOUND('',#48,.T.);
#20=FACE_BOUND('',#49,.T.);
#21=FACE_BOUND('',#50,.T.);
#22=FACE_BOUND('',#64,.T.);
#23=FACE_BOUND('',#65,.T.);
#24=FACE_BOUND('',#66,.T.);
#25=CIRCLE('',#294,1.25);
#26=CIRCLE('',#295,2.25);
#27=CIRCLE('',#296,2.25);
#28=CIRCLE('',#297,1.25);
#29=CIRCLE('',#303,2.25);
#30=CIRCLE('',#305,1.25);
#31=CIRCLE('',#307,1.25);
#32=CIRCLE('',#313,2.25);
#33=FACE_OUTER_BOUND('',#47,.T.);
#34=FACE_OUTER_BOUND('',#51,.T.);
#35=FACE_OUTER_BOUND('',#52,.T.);
#36=FACE_OUTER_BOUND('',#53,.T.);
#37=FACE_OUTER_BOUND('',#54,.T.);
#38=FACE_OUTER_BOUND('',#55,.T.);
#39=FACE_OUTER_BOUND('',#56,.T.);
#40=FACE_OUTER_BOUND('',#57,.T.);
#41=FACE_OUTER_BOUND('',#58,.T.);
#42=FACE_OUTER_BOUND('',#59,.T.);
#43=FACE_OUTER_BOUND('',#60,.T.);
#44=FACE_OUTER_BOUND('',#61,.T.);
#45=FACE_OUTER_BOUND('',#62,.T.);
#46=FACE_OUTER_BOUND('',#63,.T.);
#47=EDGE_LOOP('',(#183,#184,#185,#186));
#48=EDGE_LOOP('',(#187));
#49=EDGE_LOOP('',(#188,#189,#190,#191,#192,#193));
#50=EDGE_LOOP('',(#194));
#51=EDGE_LOOP('',(#195,#196,#197,#198));
#52=EDGE_LOOP('',(#199,#200,#201,#202));
#53=EDGE_LOOP('',(#203,#204,#205,#206));
#54=EDGE_LOOP('',(#207,#208,#209,#210));
#55=EDGE_LOOP('',(#211,#212,#213,#214));
#56=EDGE_LOOP('',(#215,#216,#217,#218));
#57=EDGE_LOOP('',(#219,#220,#221,#222));
#58=EDGE_LOOP('',(#223,#224,#225,#226));
#59=EDGE_LOOP('',(#227,#228,#229,#230));
#60=EDGE_LOOP('',(#231,#232,#233,#234));
#61=EDGE_LOOP('',(#235,#236,#237,#238));
#62=EDGE_LOOP('',(#239,#240,#241,#242));
#63=EDGE_LOOP('',(#243,#244,#245,#246));
#64=EDGE_LOOP('',(#247,#248,#249,#250,#251,#252));
#65=EDGE_LOOP('',(#253));
#66=EDGE_LOOP('',(#254));
#67=LINE('',#393,#95);
#68=LINE('',#395,#96);
#69=LINE('',#397,#97);
#70=LINE('',#398,#98);
#71=LINE('',#403,#99);
#72=LINE('',#405,#100);
#73=LINE('',#407,#101);
#74=LINE('',#411,#102);
#75=LINE('',#418,#103);
#76=LINE('',#419,#104);
#77=LINE('',#420,#105);
#78=LINE('',#423,#106);
#79=LINE('',#424,#107);
#80=LINE('',#428,#108);
#81=LINE('',#429,#109);
#82=LINE('',#430,#110);
#83=LINE('',#434,#111);
#84=LINE('',#435,#112);
#85=LINE('',#436,#113);
#86=LINE('',#441,#114);
#87=LINE('',#445,#115);
#88=LINE('',#449,#116);
#89=LINE('',#450,#117);
#90=LINE('',#452,#118);
#91=LINE('',#455,#119);
#92=LINE('',#456,#120);
#93=LINE('',#459,#121);
#94=LINE('',#460,#122);
#95=VECTOR('',#319,1000.);
#96=VECTOR('',#320,1000.);
#97=VECTOR('',#321,1000.);
#98=VECTOR('',#322,1000.);
#99=VECTOR('',#325,10.);
#100=VECTOR('',#326,10.);
#101=VECTOR('',#327,10.);
#102=VECTOR('',#330,10.);
#103=VECTOR('',#337,10.);
#104=VECTOR('',#338,10.);
#105=VECTOR('',#339,10.);
#106=VECTOR('',#342,10.);
#107=VECTOR('',#343,10.);
#108=VECTOR('',#346,10.);
#109=VECTOR('',#347,10.);
#110=VECTOR('',#348,10.);
#111=VECTOR('',#351,10.);
#112=VECTOR('',#352,10.);
#113=VECTOR('',#353,10.);
#114=VECTOR('',#360,1.25);
#115=VECTOR('',#365,1.25);
#116=VECTOR('',#370,10.);
#117=VECTOR('',#371,10.);
#118=VECTOR('',#374,10.);
#119=VECTOR('',#377,10.);
#120=VECTOR('',#378,10.);
#121=VECTOR('',#381,10.);
#122=VECTOR('',#382,10.);
#123=VERTEX_POINT('',#391);
#124=VERTEX_POINT('',#392);
#125=VERTEX_POINT('',#394);
#126=VERTEX_POINT('',#396);
#127=VERTEX_POINT('',#399);
#128=VERTEX_POINT('',#401);
#129=VERTEX_POINT('',#402);
#130=VERTEX_POINT('',#404);
#131=VERTEX_POINT('',#406);
#132=VERTEX_POINT('',#408);
#133=VERTEX_POINT('',#410);
#134=VERTEX_POINT('',#413);
#135=VERTEX_POINT('',#416);
#136=VERTEX_POINT('',#417);
#137=VERTEX_POINT('',#422);
#138=VERTEX_POINT('',#426);
#139=VERTEX_POINT('',#427);
#140=VERTEX_POINT('',#432);
#141=VERTEX_POINT('',#433);
#142=VERTEX_POINT('',#440);
#143=VERTEX_POINT('',#444);
#144=VERTEX_POINT('',#448);
#145=VERTEX_POINT('',#454);
#146=VERTEX_POINT('',#458);
#147=EDGE_CURVE('',#123,#124,#67,.T.);
#148=EDGE_CURVE('',#124,#125,#68,.T.);
#149=EDGE_CURVE('',#125,#126,#69,.T.);
#150=EDGE_CURVE('',#126,#123,#70,.T.);
#151=EDGE_CURVE('',#127,#127,#25,.T.);
#152=EDGE_CURVE('',#128,#129,#71,.T.);
#153=EDGE_CURVE('',#129,#130,#72,.T.);
#154=EDGE_CURVE('',#130,#131,#73,.T.);
#155=EDGE_CURVE('',#131,#132,#26,.T.);
#156=EDGE_CURVE('',#132,#133,#74,.T.);
#157=EDGE_CURVE('',#133,#128,#27,.T.);
#158=EDGE_CURVE('',#134,#134,#28,.T.);
#159=EDGE_CURVE('',#135,#136,#75,.T.);
#160=EDGE_CURVE('',#135,#124,#76,.T.);
#161=EDGE_CURVE('',#136,#123,#77,.T.);
#162=EDGE_CURVE('',#137,#135,#78,.T.);
#163=EDGE_CURVE('',#137,#125,#79,.T.);
#164=EDGE_CURVE('',#138,#139,#80,.T.);
#165=EDGE_CURVE('',#133,#138,#81,.T.);
#166=EDGE_CURVE('',#139,#132,#82,.T.);
#167=EDGE_CURVE('',#140,#141,#83,.T.);
#168=EDGE_CURVE('',#131,#140,#84,.T.);
#169=EDGE_CURVE('',#141,#130,#85,.F.);
#170=EDGE_CURVE('',#139,#140,#29,.T.);
#171=EDGE_CURVE('',#127,#142,#86,.T.);
#172=EDGE_CURVE('',#142,#142,#30,.T.);
#173=EDGE_CURVE('',#134,#143,#87,.T.);
#174=EDGE_CURVE('',#143,#143,#31,.T.);
#175=EDGE_CURVE('',#136,#144,#88,.T.);
#176=EDGE_CURVE('',#144,#126,#89,.T.);
#177=EDGE_CURVE('',#144,#137,#90,.T.);
#178=EDGE_CURVE('',#141,#145,#91,.T.);
#179=EDGE_CURVE('',#145,#129,#92,.T.);
#180=EDGE_CURVE('',#145,#146,#93,.T.);
#181=EDGE_CURVE('',#146,#128,#94,.T.);
#182=EDGE_CURVE('',#146,#138,#32,.T.);
#183=ORIENTED_EDGE('',*,*,#147,.T.);
#184=ORIENTED_EDGE('',*,*,#148,.T.);
#185=ORIENTED_EDGE('',*,*,#149,.T.);
#186=ORIENTED_EDGE('',*,*,#150,.T.);
#187=ORIENTED_EDGE('',*,*,#151,.T.);
#188=ORIENTED_EDGE('',*,*,#152,.T.);
#189=ORIENTED_EDGE('',*,*,#153,.T.);
#190=ORIENTED_EDGE('',*,*,#154,.T.);
#191=ORIENTED_EDGE('',*,*,#155,.T.);
#192=ORIENTED_EDGE('',*,*,#156,.T.);
#193=ORIENTED_EDGE('',*,*,#157,.T.);
#194=ORIENTED_EDGE('',*,*,#158,.T.);
#195=ORIENTED_EDGE('',*,*,#159,.F.);
#196=ORIENTED_EDGE('',*,*,#160,.T.);
#197=ORIENTED_EDGE('',*,*,#147,.F.);
#198=ORIENTED_EDGE('',*,*,#161,.F.);
#199=ORIENTED_EDGE('',*,*,#162,.F.);
#200=ORIENTED_EDGE('',*,*,#163,.T.);
#201=ORIENTED_EDGE('',*,*,#148,.F.);
#202=ORIENTED_EDGE('',*,*,#160,.F.);
#203=ORIENTED_EDGE('',*,*,#164,.F.);
#204=ORIENTED_EDGE('',*,*,#165,.F.);
#205=ORIENTED_EDGE('',*,*,#156,.F.);
#206=ORIENTED_EDGE('',*,*,#166,.F.);
#207=ORIENTED_EDGE('',*,*,#167,.F.);
#208=ORIENTED_EDGE('',*,*,#168,.F.);
#209=ORIENTED_EDGE('',*,*,#154,.F.);
#210=ORIENTED_EDGE('',*,*,#169,.F.);
#211=ORIENTED_EDGE('',*,*,#170,.F.);
#212=ORIENTED_EDGE('',*,*,#166,.T.);
#213=ORIENTED_EDGE('',*,*,#155,.F.);
#214=ORIENTED_EDGE('',*,*,#168,.T.);
#215=ORIENTED_EDGE('',*,*,#151,.F.);
#216=ORIENTED_EDGE('',*,*,#171,.T.);
#217=ORIENTED_EDGE('',*,*,#172,.F.);
#218=ORIENTED_EDGE('',*,*,#171,.F.);
#219=ORIENTED_EDGE('',*,*,#158,.F.);
#220=ORIENTED_EDGE('',*,*,#173,.T.);
#221=ORIENTED_EDGE('',*,*,#174,.F.);
#222=ORIENTED_EDGE('',*,*,#173,.F.);
#223=ORIENTED_EDGE('',*,*,#175,.F.);
#224=ORIENTED_EDGE('',*,*,#161,.T.);
#225=ORIENTED_EDGE('',*,*,#150,.F.);
#226=ORIENTED_EDGE('',*,*,#176,.F.);
#227=ORIENTED_EDGE('',*,*,#177,.F.);
#228=ORIENTED_EDGE('',*,*,#176,.T.);
#229=ORIENTED_EDGE('',*,*,#149,.F.);
#230=ORIENTED_EDGE('',*,*,#163,.F.);
#231=ORIENTED_EDGE('',*,*,#178,.F.);
#232=ORIENTED_EDGE('',*,*,#169,.T.);
#233=ORIENTED_EDGE('',*,*,#153,.F.);
#234=ORIENTED_EDGE('',*,*,#179,.F.);
#235=ORIENTED_EDGE('',*,*,#180,.F.);
#236=ORIENTED_EDGE('',*,*,#179,.T.);
#237=ORIENTED_EDGE('',*,*,#152,.F.);
#238=ORIENTED_EDGE('',*,*,#181,.F.);
#239=ORIENTED_EDGE('',*,*,#182,.F.);
#240=ORIENTED_EDGE('',*,*,#181,.T.);
#241=ORIENTED_EDGE('',*,*,#157,.F.);
#242=ORIENTED_EDGE('',*,*,#165,.T.);
#243=ORIENTED_EDGE('',*,*,#175,.T.);
#244=ORIENTED_EDGE('',*,*,#177,.T.);
#245=ORIENTED_EDGE('',*,*,#162,.T.);
#246=ORIENTED_EDGE('',*,*,#159,.T.);
#247=ORIENTED_EDGE('',*,*,#178,.T.);
#248=ORIENTED_EDGE('',*,*,#180,.T.);
#249=ORIENTED_EDGE('',*,*,#182,.T.);
#250=ORIENTED_EDGE('',*,*,#164,.T.);
#251=ORIENTED_EDGE('',*,*,#170,.T.);
#252=ORIENTED_EDGE('',*,*,#167,.T.);
#253=ORIENTED_EDGE('',*,*,#174,.T.);
#254=ORIENTED_EDGE('',*,*,#172,.T.);
#255=PLANE('',#293);
#256=PLANE('',#298);
#257=PLANE('',#299);
#258=PLANE('',#300);
#259=PLANE('',#301);
#260=PLANE('',#308);
#261=PLANE('',#309);
#262=PLANE('',#310);
#263=PLANE('',#311);
#264=PLANE('',#314);
#265=ADVANCED_FACE('',(#33,#19,#20,#21),#255,.T.);
#266=ADVANCED_FACE('',(#34),#256,.T.);
#267=ADVANCED_FACE('',(#35),#257,.T.);
#268=ADVANCED_FACE('',(#36),#258,.F.);
#269=ADVANCED_FACE('',(#37),#259,.F.);
#270=ADVANCED_FACE('',(#38),#15,.T.);
#271=ADVANCED_FACE('',(#39),#16,.F.);
#272=ADVANCED_FACE('',(#40),#17,.F.);
#273=ADVANCED_FACE('',(#41),#260,.T.);
#274=ADVANCED_FACE('',(#42),#261,.T.);
#275=ADVANCED_FACE('',(#43),#262,.F.);
#276=ADVANCED_FACE('',(#44),#263,.F.);
#277=ADVANCED_FACE('',(#45),#18,.T.);
#278=ADVANCED_FACE('',(#46,#22,#23,#24),#264,.T.);
#279=CLOSED_SHELL('',(#265,#266,#267,#268,#269,#270,#271,#272,#273,#274,
#275,#276,#277,#278));
#280=DERIVED_UNIT_ELEMENT(#282,1.);
#281=DERIVED_UNIT_ELEMENT(#469,-3.);
#282=(
MASS_UNIT()
NAMED_UNIT(*)
SI_UNIT(.KILO.,.GRAM.)
);
#283=DERIVED_UNIT((#280,#281));
#284=MEASURE_REPRESENTATION_ITEM('density measure',
POSITIVE_RATIO_MEASURE(7850.),#283);
#285=PROPERTY_DEFINITION_REPRESENTATION(#290,#287);
#286=PROPERTY_DEFINITION_REPRESENTATION(#291,#288);
#287=REPRESENTATION('material name',(#289),#466);
#288=REPRESENTATION('density',(#284),#466);
#289=DESCRIPTIVE_REPRESENTATION_ITEM('Steel','Steel');
#290=PROPERTY_DEFINITION('material property','material name',#476);
#291=PROPERTY_DEFINITION('material property','density of part',#476);
#292=AXIS2_PLACEMENT_3D('',#389,#315,#316);
#293=AXIS2_PLACEMENT_3D('',#390,#317,#318);
#294=AXIS2_PLACEMENT_3D('',#400,#323,#324);
#295=AXIS2_PLACEMENT_3D('',#409,#328,#329);
#296=AXIS2_PLACEMENT_3D('',#412,#331,#332);
#297=AXIS2_PLACEMENT_3D('',#414,#333,#334);
#298=AXIS2_PLACEMENT_3D('',#415,#335,#336);
#299=AXIS2_PLACEMENT_3D('',#421,#340,#341);
#300=AXIS2_PLACEMENT_3D('',#425,#344,#345);
#301=AXIS2_PLACEMENT_3D('',#431,#349,#350);
#302=AXIS2_PLACEMENT_3D('',#437,#354,#355);
#303=AXIS2_PLACEMENT_3D('',#438,#356,#357);
#304=AXIS2_PLACEMENT_3D('',#439,#358,#359);
#305=AXIS2_PLACEMENT_3D('',#442,#361,#362);
#306=AXIS2_PLACEMENT_3D('',#443,#363,#364);
#307=AXIS2_PLACEMENT_3D('',#446,#366,#367);
#308=AXIS2_PLACEMENT_3D('',#447,#368,#369);
#309=AXIS2_PLACEMENT_3D('',#451,#372,#373);
#310=AXIS2_PLACEMENT_3D('',#453,#375,#376);
#311=AXIS2_PLACEMENT_3D('',#457,#379,#380);
#312=AXIS2_PLACEMENT_3D('',#461,#383,#384);
#313=AXIS2_PLACEMENT_3D('',#462,#385,#386);
#314=AXIS2_PLACEMENT_3D('',#463,#387,#388);
#315=DIRECTION('axis',(0.,0.,1.));
#316=DIRECTION('refdir',(1.,0.,0.));
#317=DIRECTION('center_axis',(-2.54657080037587E-16,-1.,-2.31759056390501E-14));
#318=DIRECTION('ref_axis',(1.,-2.54657080037587E-16,-5.07707114029207E-18));
#319=DIRECTION('',(-1.,2.54657080037587E-16,5.07707114029207E-18));
#320=DIRECTION('',(-5.07707114028617E-18,2.31759056390501E-14,-1.));
#321=DIRECTION('',(1.,-2.54657080037587E-16,-5.07707114029207E-18));
#322=DIRECTION('',(5.07707114028617E-18,-2.31759056390501E-14,1.));
#323=DIRECTION('center_axis',(2.54657080037587E-16,1.,2.31759056390501E-14));
#324=DIRECTION('ref_axis',(1.,-2.54657080037587E-16,-5.07707114029207E-18));
#325=DIRECTION('',(1.,-2.54657080037587E-16,-5.07707114029207E-18));
#326=DIRECTION('',(-5.07707114028617E-18,2.31759056390501E-14,-1.));
#327=DIRECTION('',(-1.,2.54657080037587E-16,5.07707114029207E-18));
#328=DIRECTION('center_axis',(-2.54657080037587E-16,-1.,-2.31759056390501E-14));
#329=DIRECTION('ref_axis',(1.,9.86076131526265E-32,-5.07707114028629E-18));
#330=DIRECTION('',(5.07707114028617E-18,-2.31759056390501E-14,1.));
#331=DIRECTION('center_axis',(-2.54657080037587E-16,-1.,-2.31759056390501E-14));
#332=DIRECTION('ref_axis',(1.,9.86076131526265E-32,-5.07707114028629E-18));
#333=DIRECTION('center_axis',(2.54657080037587E-16,1.,2.31759056390501E-14));
#334=DIRECTION('ref_axis',(1.,-2.54657080037587E-16,-5.07707114029207E-18));
#335=DIRECTION('center_axis',(5.07707114028629E-18,-2.26978929478921E-14,
1.));
#336=DIRECTION('ref_axis',(-1.,2.54657080037587E-16,5.07707114029207E-18));
#337=DIRECTION('',(1.,0.,-5.07707114028629E-18));
#338=DIRECTION('',(0.,-1.,-2.26978929478921E-14));
#339=DIRECTION('',(0.,-1.,-2.26978929478921E-14));
#340=DIRECTION('center_axis',(-1.,-1.15238817231048E-31,5.07707114028617E-18));
#341=DIRECTION('ref_axis',(-5.07707114028617E-18,2.31759056390502E-14,-1.));
#342=DIRECTION('',(5.07707114028617E-18,0.,1.));
#343=DIRECTION('',(0.,-1.,-2.26978929478921E-14));
#344=DIRECTION('center_axis',(-1.,-1.15238817231048E-31,5.07707114028617E-18));
#345=DIRECTION('ref_axis',(-5.07707114028617E-18,2.31759056390502E-14,-1.));
#346=DIRECTION('',(-5.07707114028617E-18,0.,-1.));
#347=DIRECTION('',(0.,1.,2.26978929478921E-14));
#348=DIRECTION('',(0.,-1.,-2.26978929478921E-14));
#349=DIRECTION('center_axis',(-5.07707114028629E-18,2.26978929478921E-14,
-1.));
#350=DIRECTION('ref_axis',(1.,-2.54657080037587E-16,-5.07707114029207E-18));
#351=DIRECTION('',(1.,0.,-5.07707114028629E-18));
#352=DIRECTION('',(0.,1.,2.26978929478921E-14));
#353=DIRECTION('',(0.,1.,2.26978929478921E-14));
#354=DIRECTION('center_axis',(0.,-1.,-2.26978929478921E-14));
#355=DIRECTION('ref_axis',(1.,9.86076131526265E-32,-5.07707114028629E-18));
#356=DIRECTION('center_axis',(0.,1.,0.));
#357=DIRECTION('ref_axis',(1.,9.86076131526265E-32,-5.07707114028629E-18));
#358=DIRECTION('center_axis',(0.,-1.,-2.26978929478921E-14));
#359=DIRECTION('ref_axis',(1.,9.86076131526265E-32,-5.07707114028629E-18));
#360=DIRECTION('',(0.,1.,2.26978929478921E-14));
#361=DIRECTION('center_axis',(0.,-1.,0.));
#362=DIRECTION('ref_axis',(1.,9.86076131526265E-32,-5.07707114028629E-18));
#363=DIRECTION('center_axis',(0.,-1.,-2.26978929478921E-14));
#364=DIRECTION('ref_axis',(1.,9.86076131526265E-32,-5.07707114028629E-18));
#365=DIRECTION('',(0.,1.,2.26978929478921E-14));
#366=DIRECTION('center_axis',(0.,-1.,0.));
#367=DIRECTION('ref_axis',(1.,9.86076131526265E-32,-5.07707114028629E-18));
#368=DIRECTION('center_axis',(1.,1.15238817231048E-31,-5.07707114028617E-18));
#369=DIRECTION('ref_axis',(5.07707114028617E-18,-2.31759056390502E-14,1.));
#370=DIRECTION('',(-5.07707114028617E-18,0.,-1.));
#371=DIRECTION('',(0.,-1.,-2.26978929478921E-14));
#372=DIRECTION('center_axis',(-5.07707114028629E-18,2.26978929478921E-14,
-1.));
#373=DIRECTION('ref_axis',(1.,-2.54657080037587E-16,-5.07707114029207E-18));
#374=DIRECTION('',(-1.,0.,5.07707114028629E-18));
#375=DIRECTION('center_axis',(1.,1.15238817231048E-31,-5.07707114028617E-18));
#376=DIRECTION('ref_axis',(5.07707114028617E-18,-2.31759056390502E-14,1.));
#377=DIRECTION('',(5.07707114028617E-18,0.,1.));
#378=DIRECTION('',(0.,-1.,-2.26978929478921E-14));
#379=DIRECTION('center_axis',(5.07707114028629E-18,-2.26978929478921E-14,
1.));
#380=DIRECTION('ref_axis',(-1.,2.54657080037587E-16,5.07707114029207E-18));
#381=DIRECTION('',(-1.,0.,5.07707114028629E-18));
#382=DIRECTION('',(0.,-1.,-2.26978929478921E-14));
#383=DIRECTION('center_axis',(0.,-1.,-2.26978929478921E-14));
#384=DIRECTION('ref_axis',(1.,9.86076131526265E-32,-5.07707114028629E-18));
#385=DIRECTION('center_axis',(0.,1.,0.));
#386=DIRECTION('ref_axis',(1.,9.86076131526265E-32,-5.07707114028629E-18));
#387=DIRECTION('center_axis',(0.,1.,0.));
#388=DIRECTION('ref_axis',(0.,0.,1.));
#389=CARTESIAN_POINT('',(0.,0.,0.));
#390=CARTESIAN_POINT('Origin',(-4.4140125066044,-33.2211038573696,19.1851694266136));
#391=CARTESIAN_POINT('',(32.1609874933956,-33.2211038573699,29.7251694266136));
#392=CARTESIAN_POINT('',(-40.9890125066044,-33.2211038573699,29.7251694266136));
#393=CARTESIAN_POINT('',(-4.4140125066044,-33.2211038573699,29.7251694266136));
#394=CARTESIAN_POINT('',(-40.9890125066044,-33.2211038573694,8.64516942661361));
#395=CARTESIAN_POINT('',(-40.9890125066044,-33.2211038573696,19.1851694266136));
#396=CARTESIAN_POINT('',(32.1609874933956,-33.2211038573694,8.64516942661361));
#397=CARTESIAN_POINT('',(-4.4140125066044,-33.2211038573694,8.64516942661361));
#398=CARTESIAN_POINT('',(32.1609874933956,-33.2211038573696,19.1851694266136));
#399=CARTESIAN_POINT('',(-39.8290125066044,-33.2211038573698,27.3151694266136));
#400=CARTESIAN_POINT('Origin',(-38.5790125066044,-33.2211038573698,27.3151694266136));
#401=CARTESIAN_POINT('',(-36.8256158030601,-33.2211038573698,28.7251694266136));
#402=CARTESIAN_POINT('',(31.1609874933956,-33.2211038573699,28.7251694266136));
#403=CARTESIAN_POINT('',(13.8734874933956,-33.2211038573699,28.7251694266136));
#404=CARTESIAN_POINT('',(31.1609874933956,-33.2211038573694,9.64516942661361));
#405=CARTESIAN_POINT('',(31.1609874933956,-33.2211038573695,13.9151694266136));
#406=CARTESIAN_POINT('',(-36.8256158030601,-33.2211038573694,9.64516942661361));
#407=CARTESIAN_POINT('',(-22.7015125066044,-33.2211038573694,9.64516942661361));
#408=CARTESIAN_POINT('',(-39.9890125066044,-33.2211038573695,12.8085661301579));
#409=CARTESIAN_POINT('Origin',(-38.5790125066044,-33.2211038573694,11.0551694266136));
#410=CARTESIAN_POINT('',(-39.9890125066044,-33.2211038573698,25.5617727230693));
#411=CARTESIAN_POINT('',(-39.9890125066044,-33.2211038573697,24.4551694266136));
#412=CARTESIAN_POINT('Origin',(-38.5790125066044,-33.2211038573698,27.3151694266136));
#413=CARTESIAN_POINT('',(-39.8290125066044,-33.2211038573694,11.0551694266136));
#414=CARTESIAN_POINT('Origin',(-38.5790125066044,-33.2211038573694,11.0551694266136));
#415=CARTESIAN_POINT('Origin',(32.1609874933956,-28.7211038573699,29.7251694266137));
#416=CARTESIAN_POINT('',(-40.9890125066044,-29.9212865940327,29.7251694266137));
#417=CARTESIAN_POINT('',(32.1609874933956,-29.9212865940327,29.7251694266137));
#418=CARTESIAN_POINT('',(13.8734874933956,-29.9212865940327,29.7251694266137));
#419=CARTESIAN_POINT('',(-40.9890125066044,-28.7211038573699,29.7251694266137));
#420=CARTESIAN_POINT('',(32.1609874933956,-28.7211038573699,29.7251694266137));
#421=CARTESIAN_POINT('Origin',(-40.9890125066044,-28.7211038573699,29.7251694266137));
#422=CARTESIAN_POINT('',(-40.9890125066044,-29.9212865940327,8.64516942661368));
#423=CARTESIAN_POINT('',(-40.9890125066044,-29.9212865940327,24.4551694266137));
#424=CARTESIAN_POINT('',(-40.9890125066044,-28.7211038573694,8.64516942661371));
#425=CARTESIAN_POINT('Origin',(-39.9890125066044,-28.7211038573699,29.7251694266137));
#426=CARTESIAN_POINT('',(-39.9890125066044,-29.9212865940327,25.5617727230694));
#427=CARTESIAN_POINT('',(-39.9890125066044,-29.9212865940327,12.808566130158));
#428=CARTESIAN_POINT('',(-39.9890125066044,-29.9212865940327,24.4551694266137));
#429=CARTESIAN_POINT('',(-39.9890125066044,-28.7211038573698,25.5617727230694));
#430=CARTESIAN_POINT('',(-39.9890125066044,-28.7211038573695,12.808566130158));
#431=CARTESIAN_POINT('Origin',(-40.9890125066044,-28.7211038573694,9.64516942661371));
#432=CARTESIAN_POINT('',(-36.8256158030601,-29.9212865940327,9.64516942661368));
#433=CARTESIAN_POINT('',(31.1609874933956,-29.9212865940327,9.64516942661368));
#434=CARTESIAN_POINT('',(-22.7015125066044,-29.9212865940327,9.64516942661368));
#435=CARTESIAN_POINT('',(-36.8256158030601,-28.7211038573694,9.64516942661371));
#436=CARTESIAN_POINT('',(31.1609874933956,-28.7211038573694,9.64516942661371));
#437=CARTESIAN_POINT('Origin',(-38.5790125066044,-28.7211038573694,11.0551694266137));
#438=CARTESIAN_POINT('Origin',(-38.5790125066044,-29.9212865940325,11.0551694266137));
#439=CARTESIAN_POINT('Origin',(-38.5790125066044,-28.7211038573698,27.3151694266137));
#440=CARTESIAN_POINT('',(-39.8290125066044,-29.9212865940329,27.3151694266137));
#441=CARTESIAN_POINT('',(-39.8290125066044,-28.7211038573698,27.3151694266137));
#442=CARTESIAN_POINT('Origin',(-38.5790125066044,-29.9212865940329,27.3151694266137));
#443=CARTESIAN_POINT('Origin',(-38.5790125066044,-28.7211038573694,11.0551694266137));
#444=CARTESIAN_POINT('',(-39.8290125066044,-29.9212865940325,11.0551694266137));
#445=CARTESIAN_POINT('',(-39.8290125066044,-28.7211038573694,11.0551694266137));
#446=CARTESIAN_POINT('Origin',(-38.5790125066044,-29.9212865940325,11.0551694266137));
#447=CARTESIAN_POINT('Origin',(32.1609874933956,-28.7211038573694,8.64516942661371));
#448=CARTESIAN_POINT('',(32.1609874933956,-29.9212865940327,8.64516942661368));
#449=CARTESIAN_POINT('',(32.1609874933956,-29.9212865940327,13.9151694266137));
#450=CARTESIAN_POINT('',(32.1609874933956,-28.7211038573694,8.64516942661371));
#451=CARTESIAN_POINT('Origin',(-40.9890125066044,-28.7211038573694,8.64516942661371));
#452=CARTESIAN_POINT('',(-22.7015125066044,-29.9212865940327,8.64516942661368));
#453=CARTESIAN_POINT('Origin',(31.1609874933956,-28.7211038573694,8.64516942661371));
#454=CARTESIAN_POINT('',(31.1609874933956,-29.9212865940327,28.7251694266137));
#455=CARTESIAN_POINT('',(31.1609874933956,-29.9212865940327,13.9151694266137));
#456=CARTESIAN_POINT('',(31.1609874933956,-28.7211038573699,28.7251694266137));
#457=CARTESIAN_POINT('Origin',(32.1609874933956,-28.7211038573699,28.7251694266137));
#458=CARTESIAN_POINT('',(-36.8256158030601,-29.9212865940327,28.7251694266137));
#459=CARTESIAN_POINT('',(13.8734874933956,-29.9212865940327,28.7251694266137));
#460=CARTESIAN_POINT('',(-36.8256158030601,-28.7211038573698,28.7251694266137));
#461=CARTESIAN_POINT('Origin',(-38.5790125066044,-28.7211038573698,27.3151694266137));
#462=CARTESIAN_POINT('Origin',(-38.5790125066044,-29.9212865940329,27.3151694266137));
#463=CARTESIAN_POINT('Origin',(-4.4140125066044,-29.9212865940327,19.1851694266137));
#464=UNCERTAINTY_MEASURE_WITH_UNIT(LENGTH_MEASURE(0.01),#468,
'DISTANCE_ACCURACY_VALUE',
'Maximum model space distance between geometric entities at asserted c
onnectivities');
#465=UNCERTAINTY_MEASURE_WITH_UNIT(LENGTH_MEASURE(0.01),#468,
'DISTANCE_ACCURACY_VALUE',
'Maximum model space distance between geometric entities at asserted c
onnectivities');
#466=(
GEOMETRIC_REPRESENTATION_CONTEXT(3)
GLOBAL_UNCERTAINTY_ASSIGNED_CONTEXT((#464))
GLOBAL_UNIT_ASSIGNED_CONTEXT((#468,#470,#471))
REPRESENTATION_CONTEXT('','3D')
);
#467=(
GEOMETRIC_REPRESENTATION_CONTEXT(3)
GLOBAL_UNCERTAINTY_ASSIGNED_CONTEXT((#465))
GLOBAL_UNIT_ASSIGNED_CONTEXT((#468,#470,#471))
REPRESENTATION_CONTEXT('','3D')
);
#468=(
LENGTH_UNIT()
NAMED_UNIT(*)
SI_UNIT(.MILLI.,.METRE.)
);
#469=(
LENGTH_UNIT()
NAMED_UNIT(*)
SI_UNIT($,.METRE.)
);
#470=(
NAMED_UNIT(*)
PLANE_ANGLE_UNIT()
SI_UNIT($,.RADIAN.)
);
#471=(
NAMED_UNIT(*)
SI_UNIT($,.STERADIAN.)
SOLID_ANGLE_UNIT()
);
#472=SHAPE_DEFINITION_REPRESENTATION(#473,#474);
#473=PRODUCT_DEFINITION_SHAPE('',$,#476);
#474=SHAPE_REPRESENTATION('',(#292),#466);
#475=PRODUCT_DEFINITION_CONTEXT('part definition',#480,'design');
#476=PRODUCT_DEFINITION('Display Case','Display Case',#477,#475);
#477=PRODUCT_DEFINITION_FORMATION('',$,#482);
#478=PRODUCT_RELATED_PRODUCT_CATEGORY('Display Case','Display Case',(#482));
#479=APPLICATION_PROTOCOL_DEFINITION('international standard',
'automotive_design',2009,#480);
#480=APPLICATION_CONTEXT(
'Core Data for Automotive Mechanical Design Process');
#481=PRODUCT_CONTEXT('part definition',#480,'mechanical');
#482=PRODUCT('Display Case','Display Case',$,(#481));
#483=PRESENTATION_STYLE_ASSIGNMENT((#484));
#484=SURFACE_STYLE_USAGE(.BOTH.,#485);
#485=SURFACE_SIDE_STYLE('',(#486));
#486=SURFACE_STYLE_FILL_AREA(#487);
#487=FILL_AREA_STYLE('Steel - Satin',(#488));
#488=FILL_AREA_STYLE_COLOUR('Steel - Satin',#489);
#489=COLOUR_RGB('Steel - Satin',0.627450980392157,0.627450980392157,0.627450980392157);
ENDSEC;
END-ISO-10303-21;
